<?xml version="1.0" encoding="utf-8"?>
<!-- Generator: Adobe Illustrator 20.1.0, SVG Export Plug-In . SVG Version: 6.00 Build 0)  -->
<svg version="1.1" id="Layer_1" xmlns="http://www.w3.org/2000/svg" xmlns:xlink="http://www.w3.org/1999/xlink" x="0px" y="0px"
	 viewBox="0 0 64 62" style="enable-background:new 0 0 64 62;" xml:space="preserve">
<style type="text/css">
	.st0{fill:#FFFFFF;}
</style>
<g id="Layer_x0020_1">
	<path class="st0" d="M37.7,25.9c2,0.6,3.8,1.9,5.1,3.5c1.2,1.6,1.9,3.6,1.9,5.8V44v1h-1H20.3h-1v-1v-8.7c0-2.2,0.7-4.2,1.9-5.8
		c1.2-1.7,3-2.9,5.1-3.5l0.6-0.2l0.4,0.4c0.6,0.6,1.3,1.1,2.2,1.4c0.8,0.3,1.6,0.5,2.5,0.5c0.9,0,1.7-0.2,2.5-0.5
		c0.8-0.3,1.5-0.8,2.2-1.4l0.4-0.4L37.7,25.9z M47.2,51c-0.6,0-1-0.4-1-1c0-0.6,0.4-1,1-1h8h1v1v8c0,0.6-0.4,1-1,1c-0.6,0-1-0.4-1-1
		v-5.4c-2.6,2.6-5.6,4.8-9,6.4c-4,1.9-8.5,3-13.3,3s-9.2-1.1-13.3-3c-4.2-2-7.8-4.9-10.7-8.4c-0.4-0.4-0.3-1.1,0.1-1.4
		c0.4-0.4,1.1-0.3,1.4,0.1c2.7,3.3,6.1,6,10,7.9C23.3,59,27.6,60,32,60s8.6-1,12.4-2.8c3.2-1.5,6.2-3.7,8.6-6.2H47.2z M17,11
		c0.6,0,1,0.4,1,1c0,0.6-0.4,1-1,1H9H8.8h0h0H8v-0.4c-0.3-0.4-0.3-0.9,0-1.2V4c0-0.6,0.4-1,1-1c0.6,0,1,0.4,1,1v5.2
		c2.5-2.5,5.5-4.6,8.7-6.2c4-1.9,8.5-3,13.3-3s9.2,1.1,13.3,3c4.2,2,7.8,4.9,10.7,8.4c0.4,0.4,0.3,1.1-0.1,1.4
		c-0.4,0.4-1.1,0.3-1.4-0.1c-2.7-3.3-6.1-6-10-7.9C40.6,3,36.4,2,32,2s-8.6,1-12.4,2.8C16.4,6.3,13.4,8.4,11,11H17z M56.1,25.4
		c1.2,0,2.3,0.5,3.1,1.3l0,0c0.8,0.8,1.3,1.9,1.3,3.1s-0.5,2.3-1.3,3.1c0.1,0,0.2,0,0.3,0c1.3,0.4,2.4,1.2,3.2,2.2
		c0.8,1,1.2,2.3,1.2,3.7V44v1h-1H49.3h-1v-1v-5.1c0-1.4,0.5-2.6,1.2-3.7c0.8-1,1.9-1.8,3.2-2.2c0.1,0,0.2,0,0.3,0l0,0
		c-0.8-0.8-1.3-1.9-1.3-3.1c0-1.2,0.5-2.3,1.3-3.1C53.8,25.9,54.9,25.4,56.1,25.4z M58.3,33.6c-0.6,0.4-1.4,0.6-2.2,0.6
		c-0.8,0-1.6-0.2-2.2-0.6v0c0.2,0.5-0.1,1.1-0.7,1.2c-0.9,0.3-1.6,0.8-2.2,1.5c-0.5,0.7-0.8,1.5-0.8,2.5V43h0.9l0-1.9
		c0-0.6,0.4-1,1-1c0.6,0,1,0.4,1,1l0,1.9h5.8l0-1.9c0-0.6,0.4-1,1-1c0.6,0,1,0.4,1,1l0,1.9H62v-4.1c0-0.9-0.3-1.8-0.8-2.5
		c-0.5-0.7-1.3-1.2-2.2-1.5C58.5,34.7,58.2,34.2,58.3,33.6L58.3,33.6L58.3,33.6z M57.9,28.1c-0.4-0.4-1-0.7-1.7-0.7
		c-0.7,0-1.3,0.3-1.7,0.7c-0.4,0.4-0.7,1-0.7,1.7c0,0.7,0.3,1.3,0.7,1.7l0,0c0.4,0.4,1,0.7,1.7,0.7c0.7,0,1.3-0.3,1.7-0.7
		s0.7-1,0.7-1.7S58.3,28.5,57.9,28.1z M7.9,25.4c1.2,0,2.3,0.5,3.1,1.3l0,0c0.8,0.8,1.3,1.9,1.3,3.1s-0.5,2.3-1.3,3.1
		c0.1,0,0.2,0,0.3,0c1.3,0.4,2.4,1.2,3.2,2.2c0.8,1,1.2,2.3,1.2,3.7V44v1h-1H1H0v-1v-5.1c0-1.4,0.5-2.6,1.2-3.7
		c0.8-1,1.9-1.8,3.2-2.2c0.1,0,0.2,0,0.3,0l0,0c-0.8-0.8-1.3-1.9-1.3-3.1c0-1.2,0.5-2.3,1.3-3.1S6.6,25.4,7.9,25.4z M10.1,33.6
		c-0.6,0.4-1.4,0.6-2.2,0.6S6.3,34,5.7,33.6v0c0.2,0.5-0.1,1.1-0.7,1.2c-0.9,0.3-1.6,0.8-2.2,1.5C2.3,37.1,2,37.9,2,38.9V43H3l0-1.9
		c0-0.6,0.4-1,1-1s1,0.4,1,1l0,1.9h5.8l0-1.9c0-0.6,0.4-1,1-1c0.6,0,1,0.4,1,1l0,1.9h0.9v-4.1c0-0.9-0.3-1.8-0.8-2.5
		c-0.5-0.7-1.3-1.2-2.2-1.5C10.2,34.7,9.9,34.2,10.1,33.6L10.1,33.6L10.1,33.6z M9.6,28.1c-0.4-0.4-1-0.7-1.7-0.7s-1.3,0.3-1.7,0.7
		c-0.4,0.4-0.7,1-0.7,1.7c0,0.7,0.3,1.3,0.7,1.7l0,0c0.4,0.4,1,0.7,1.7,0.7s1.3-0.3,1.7-0.7s0.7-1,0.7-1.7S10,28.5,9.6,28.1z M32,13
		c1.9,0,3.6,0.8,4.8,2l0,0c1.2,1.2,2,2.9,2,4.8c0,1.9-0.8,3.6-2,4.8c-1.2,1.2-2.9,2-4.8,2c-1.9,0-3.6-0.8-4.8-2l0,0
		c-1.2-1.2-2-2.9-2-4.8c0-1.9,0.8-3.6,2-4.8S30.1,13,32,13z M35.4,16.4C34.6,15.5,33.3,15,32,15c-1.3,0-2.5,0.5-3.4,1.4
		c-0.9,0.9-1.4,2.1-1.4,3.4s0.5,2.5,1.4,3.4l0,0c0.9,0.9,2.1,1.4,3.4,1.4c1.3,0,2.5-0.5,3.4-1.4c0.9-0.9,1.4-2.1,1.4-3.4
		S36.3,17.3,35.4,16.4z M37.7,43l0-4c0-0.6,0.4-1,1-1c0.6,0,1,0.4,1,1l0,4h3v-7.8c0-1.7-0.6-3.3-1.5-4.6c-0.9-1.2-2.1-2.1-3.5-2.6
		c-0.7,0.6-1.5,1.1-2.3,1.4c-1,0.4-2.1,0.6-3.3,0.6c-1.2,0-2.3-0.2-3.3-0.6c-0.9-0.3-1.6-0.8-2.3-1.4c-1.4,0.5-2.6,1.5-3.5,2.6
		c-1,1.3-1.5,2.9-1.5,4.6V43h3l0-4c0-0.6,0.4-1,1-1s1,0.4,1,1l0,4H37.7L37.7,43z"/>
</g>
</svg>
