<?xml version="1.0" encoding="utf-8"?>
<!-- Generator: Adobe Illustrator 20.1.0, SVG Export Plug-In . SVG Version: 6.00 Build 0)  -->
<svg version="1.1" id="Arrow_1_" xmlns="http://www.w3.org/2000/svg" xmlns:xlink="http://www.w3.org/1999/xlink" x="0px" y="0px"
	 viewBox="0 0 500 500" style="enable-background:new 0 0 500 500;" xml:space="preserve">
<style type="text/css">
	.st0{fill:#FFEB3B;}
	.st1{fill:none;}
</style>
<polygon class="st0" points="394.9,476.7 250.9,400.7 108.7,480.1 134.1,315.1 17,199.9 176.7,174 246.5,23.3 319.8,172.3 
	480,194.4 365.6,312.4 "/>
<g>
	<polygon class="st1" points="317.1,177.1 307.1,156.3 250,38 192.9,156.3 182.9,177.1 160.1,180.5 30.4,199.8 124.9,294.1 
		140.8,309.9 137.1,332.1 115,463.9 229.3,402.4 250,391.3 270.6,402.4 384.9,463.9 362.8,332.1 359.1,309.9 375,294.1 469.6,199.8 
		339.9,180.5 	"/>
	<path d="M498.1,188.4c-4.3-12.5-15.4-21.6-28.8-23.6l-130.1-19.4L282.7,28C276.8,15.7,264,7.8,250,7.8s-26.7,7.9-32.7,20.2
		l-56.5,117.4L30.6,164.8c-13.4,2-24.5,11.1-28.8,23.6s-1,26.3,8.4,35.7l95.3,95.2l-22,132.1c-2.2,13.3,3.5,26.6,14.8,34.4
		c6.2,4.3,13.5,6.4,20.8,6.4c6,0,12-1.5,17.5-4.4l113.4-61l113.4,61.1c5.5,2.9,11.5,4.4,17.5,4.4c7.3,0,14.6-2.2,20.8-6.4
		c11.3-7.8,17-21.1,14.8-34.4l-22.1-132.1l95.4-95.2C499.2,214.7,502.4,200.9,498.1,188.4z M375,294.1l-15.9,15.8l3.7,22.1
		l22.1,131.8l-114.3-61.5l-20.6-11l-20.7,11.1L115,463.9l22.1-131.8l3.7-22.1l-15.9-15.8l-94.5-94.3l129.7-19.3l22.8-3.4l10-20.8
		L250,38l57.1,118.3l10,20.8l22.8,3.4l129.7,19.3L375,294.1z"/>
</g>
</svg>
