<?xml version="1.0" encoding="utf-8"?>
<!-- Generator: Adobe Illustrator 20.1.0, SVG Export Plug-In . SVG Version: 6.00 Build 0)  -->
<svg version="1.1" id="Arrow_1_" xmlns="http://www.w3.org/2000/svg" xmlns:xlink="http://www.w3.org/1999/xlink" x="0px" y="0px"
	 viewBox="0 0 500 500" style="enable-background:new 0 0 500 500;" xml:space="preserve">
<style type="text/css">
	.st0{fill:#FFFFFF;}
</style>
<g id="_x37_64-arrow-down-selected_x40_2x.png">
	<g>
		<path class="st0" d="M500,133.9c0-4.9-4-8.9-8.9-8.9c-2.4,0-4.6,1-6.2,2.5l0,0L250,353.7L15.1,127.5l0,0c-1.6-1.5-3.8-2.5-6.2-2.5
			C4,125,0,129,0,133.9c0,2.5,1.1,4.8,2.8,6.4l0,0l241.1,232.1l0,0c1.6,1.5,3.8,2.5,6.2,2.5s4.6-1,6.2-2.5l0,0l241.1-232.1l0,0
			C498.9,138.7,500,136.5,500,133.9z"/>
	</g>
</g>
</svg>
