<?xml version="1.0" encoding="utf-8"?>
<!-- Generator: Adobe Illustrator 20.1.0, SVG Export Plug-In . SVG Version: 6.00 Build 0)  -->
<svg version="1.1" id="Layer_1" xmlns="http://www.w3.org/2000/svg" xmlns:xlink="http://www.w3.org/1999/xlink" x="0px" y="0px"
	 viewBox="0 0 498.6 500" style="enable-background:new 0 0 498.6 500;" xml:space="preserve">
<style type="text/css">
	.st0{fill:#FFFFFF;}
</style>
<path class="st0" d="M489.4,227.5L271.1,9.2c-6.1-6.1-14.1-9.1-22-9.1c-8,0-16,3-22,9.1L8.7,227.5C-0.2,236.4-2.9,241.3,2,253
	c4.8,11.6,19.7,19.2,32.4,19.2h31.2v211.2c0,16.4,15.6,15.6,15.6,15.6h82.2c15.6,0,15.6-15.6,15.6-15.6V333.2
	c0.2-15.6,15.6-15.6,15.6-15.6h104.9c0,0,15.6,0,15.6,15.6v149.4c0,0,0,16.2,15.6,16.2c15.6,0,82.9,0.2,82.9,0.2
	c15.6,0,15.6-15.6,15.6-15.6V272.2h38.3c12.6,0,24-7.6,28.8-19.2C501,241.3,498.3,236.4,489.4,227.5z"/>
</svg>
